<svg width="64" height="76" viewBox="0 0 64 76" fill="none" xmlns="http://www.w3.org/2000/svg">
<path d="M4.59774 35.8535L0.603356 41.3681C-0.389265 42.7384 0.209543 44.676 1.80394 45.2461L4.38621 46.1697V64.1288C4.38621 65.7586 5.41728 67.2226 6.952 67.7713L28.0341 75.312C30.5551 76.2139 33.3576 76.2446 35.965 75.312L57.0472 67.7713C58.582 67.2226 59.613 65.7586 59.613 64.1288V58.4463C59.613 57.8313 59.1147 57.333 58.4997 57.333C57.8847 57.333 57.3864 57.8313 57.3864 58.4463V64.1288C57.3864 64.8205 56.9488 65.4419 56.2975 65.6749L35.2151 73.2155C34.5319 73.4599 33.8283 73.6248 33.1128 73.7085V49.4198L35.579 52.8244C36.232 53.7265 37.4305 54.1043 38.4891 53.7253C39.6689 53.3033 56.8643 47.153 57.3866 46.9661V53.2508C57.3866 53.8657 57.8849 54.3641 58.4999 54.3641C59.1149 54.3641 59.6132 53.8657 59.6132 53.2508V46.1697L62.1954 45.2461C63.7886 44.6762 64.3892 42.739 63.3957 41.368L63.3959 41.3681L59.4015 35.8535C59.2876 35.6961 59.088 35.5341 58.8727 35.4577L49.2225 32.0266C48.643 31.8201 48.0065 32.1231 47.8006 32.7026C47.5945 33.282 47.8972 33.9185 48.4766 34.1245L55.1852 36.5098L33.1127 44.4045V29.029C34.0541 29.1197 34.9798 29.3256 35.8762 29.6444L43.5537 32.3743C44.1331 32.5806 44.7697 32.2778 44.9756 31.6983C45.1816 31.1189 44.879 30.4824 44.2996 30.2763L36.6221 27.5465C33.7069 26.5098 30.443 26.4561 27.3767 27.5465L5.12634 35.4577C4.91407 35.5332 4.71709 35.6888 4.59774 35.8535ZM2.40646 42.6744L5.91084 37.8361L30.2273 46.5335C29.4021 47.6727 30.1216 46.6796 26.6166 51.5185C26.536 51.6296 26.3889 51.6748 26.2601 51.6289C25.8459 51.4808 2.98671 43.3045 2.55371 43.1497C2.35822 43.0796 2.28459 42.8426 2.40646 42.6744ZM7.70163 65.6749C7.05027 65.442 6.61267 64.8205 6.61267 64.1288V46.9661L25.5103 53.7253C26.5786 54.1076 27.7684 53.7172 28.4152 52.831C28.4168 52.8287 28.4186 52.8268 28.4202 52.8246C28.4202 52.8244 28.4202 52.8244 28.4202 52.8244L30.8862 49.4198V73.7084C30.1708 73.6246 29.467 73.4597 28.7839 73.2155L7.70163 65.6749ZM61.5926 42.6744C61.7143 42.8424 61.6407 43.0796 61.4455 43.1497C61.2227 43.2294 37.9732 51.545 37.7391 51.6287C37.6103 51.6751 37.463 51.6298 37.3824 51.5185L33.7716 46.5335L58.0882 37.8361L61.5926 42.6744ZM28.1227 29.6444C29.0192 29.3257 29.9447 29.1198 30.8861 29.029V44.4045C29.9313 44.0629 9.67381 36.8174 8.81374 36.5097L28.1227 29.6444Z" fill="#252836"/>
<path d="M33.1124 23.2002V9.28643C33.1124 8.67144 32.614 8.17313 31.999 8.17313C31.3841 8.17313 30.8857 8.67144 30.8857 9.28643V23.2C30.8857 23.815 31.3841 24.3134 31.999 24.3134C32.614 24.3134 33.1124 23.815 33.1124 23.2002Z" fill="#FF8700"/>
<path d="M46.7407 11.4148C46.4227 11.5539 38.9396 14.9263 37.7023 24.2025C37.6135 24.8685 38.131 25.463 38.8073 25.463C39.3567 25.463 39.8348 25.0563 39.9095 24.4967C40.3558 21.1495 41.7809 18.2803 44.1449 15.9688C45.9215 14.2316 47.5975 13.4707 47.6351 13.4539C48.1968 13.2068 48.4528 12.5514 48.2068 11.9888C47.9606 11.4255 47.3046 11.1687 46.7407 11.4148Z" fill="#FF8700"/>
<path d="M44.4784 26.5806C44.1729 27.1143 44.3578 27.7944 44.8915 28.0998C45.4244 28.4049 46.105 28.2207 46.4106 27.6866C48.9965 23.1693 52.8375 21.4058 55.6046 20.7221C56.2015 20.5746 56.5657 19.971 56.4182 19.3741C56.2706 18.7773 55.6669 18.4127 55.0702 18.5605C52.4596 19.206 47.6122 21.1057 44.4784 26.5806Z" fill="#FF8700"/>
<path d="M15.7917 11.9888C15.5455 12.5521 15.8024 13.2085 16.3658 13.4549C16.4321 13.4839 23.016 16.4505 24.0891 24.4968C24.1706 25.1082 24.7326 25.5344 25.3399 25.4532C25.9494 25.3719 26.3775 24.812 26.2963 24.2025C25.059 14.9263 17.5757 11.5537 17.2577 11.4148C16.6944 11.1687 16.0383 11.4256 15.7917 11.9888Z" fill="#FF8700"/>
<path d="M7.58059 19.3742C7.43319 19.971 7.79746 20.5746 8.39419 20.7222C11.1613 21.406 15.0025 23.1695 17.5881 27.6867C17.8938 28.2208 18.5744 28.4051 19.1073 28.0998C19.6409 27.7943 19.8259 27.1141 19.5204 26.5806C16.3867 21.1057 11.539 19.2058 8.92857 18.5606C8.33125 18.4129 7.72814 18.7776 7.58059 19.3742Z" fill="#FF8700"/>
<path d="M52.377 11.3215C51.762 11.3215 51.2637 11.8198 51.2637 12.4348C51.2637 13.0498 51.762 13.5481 52.377 13.5481H53.1522V14.3234C53.1522 14.9384 53.6505 15.4367 54.2655 15.4367C54.8805 15.4367 55.3788 14.9384 55.3788 14.3234V13.5481H56.1541C56.7691 13.5481 57.2674 13.0498 57.2674 12.4348C57.2674 11.8198 56.7691 11.3215 56.1541 11.3215H55.3788V10.5464C55.3788 9.93141 54.8805 9.43311 54.2655 9.43311C53.6505 9.43311 53.1522 9.93141 53.1522 10.5464V11.3215H52.377Z" fill="#FF8700"/>
<path d="M7.54775 26.7491H6.77246C6.15748 26.7491 5.65918 27.2474 5.65918 27.8624C5.65918 28.4773 6.15748 28.9756 6.77246 28.9756H7.54775V29.7509C7.54775 30.3659 8.04605 30.8642 8.66103 30.8642C9.27601 30.8642 9.77431 30.3659 9.77431 29.7509V28.9756H10.5496C11.1646 28.9756 11.6629 28.4773 11.6629 27.8624C11.6629 27.2474 11.1646 26.7491 10.5496 26.7491H9.77431V25.9738C9.77431 25.3588 9.27601 24.8605 8.66103 24.8605C8.04605 24.8605 7.54775 25.3588 7.54775 25.9738V26.7491Z" fill="#FF8700"/>
<path d="M45.0046 3.43135C43.9872 2.91077 43.1418 2.06362 42.6244 1.04592C41.9145 -0.348681 39.9286 -0.348533 39.2187 1.04621C38.7014 2.06362 37.8559 2.91092 36.8386 3.43121C35.4448 4.14402 35.4541 6.14618 36.8319 6.84875C37.8449 7.36532 38.6889 8.20713 39.2082 9.2192C39.9147 10.5958 41.9285 10.5961 42.6352 9.21905C43.1545 8.20728 43.9985 7.36547 45.0116 6.8486C46.3888 6.14618 46.3988 4.14461 45.0046 3.43135ZM40.9215 7.72499C40.2823 6.67522 39.3882 5.78117 38.3385 5.14183C39.3887 4.50265 40.2824 3.60948 40.9216 2.56045C41.561 3.60948 42.4546 4.50265 43.5045 5.14183C42.4549 5.78117 41.5608 6.67508 40.9215 7.72499Z" fill="#252836"/>
<path d="M22.3234 11.4314C22.9559 12.6635 24.7541 12.6654 25.3867 11.4314C25.7486 10.726 26.3369 10.1392 27.043 9.77912C28.2675 9.15478 28.2944 7.36548 27.0387 6.72258C27.0386 6.72244 27.0384 6.72244 27.0383 6.72229C26.3292 6.35965 25.74 5.7693 25.3792 5.05976C24.7446 3.81211 22.966 3.81182 22.3309 5.0599C21.9702 5.76915 21.3811 6.35965 20.6711 6.72273C19.434 7.35643 19.4246 9.14558 20.6672 9.77912C21.3732 10.1391 21.9615 10.726 22.3234 11.4314ZM23.855 6.82798C24.2469 7.37706 24.7305 7.86053 25.28 8.25211C24.7308 8.64385 24.2469 9.12762 23.855 9.67714C23.4632 9.12791 22.9795 8.64385 22.4301 8.25211C22.9796 7.86038 23.4634 7.37706 23.855 6.82798Z" fill="#252836"/>
</svg>
