<svg width="76" height="76" viewBox="0 0 76 76" fill="none" xmlns="http://www.w3.org/2000/svg">
<path fill-rule="evenodd" clip-rule="evenodd" d="M46.3135 7.42163C34.0172 7.42163 24.0488 17.3898 24.0488 29.6863C24.0488 41.9828 34.017 51.951 46.3135 51.951C46.8559 51.951 47.3938 51.9315 47.9262 51.8935C47.8839 51.6764 47.8618 51.4531 47.8618 51.2254C47.8618 49.2717 49.4601 47.6734 51.4138 47.6734H52.1799C52.1799 43.7501 55.3603 40.5695 59.2838 40.5695C61.278 40.5695 63.0802 41.3912 64.3702 42.7146C67.0177 39.0516 68.578 34.5513 68.578 29.6865C68.5783 17.39 58.6101 7.42163 46.3135 7.42163Z" fill="white"/>
<path fill-rule="evenodd" clip-rule="evenodd" d="M24.0487 29.6863C24.0487 17.3898 34.0169 7.42161 46.3135 7.42161C58.61 7.42161 68.5782 17.3898 68.5782 29.6863C68.5782 34.5512 67.0179 39.0516 64.3704 42.7143C64.7544 43.1082 65.0932 43.5466 65.3781 44.0209C65.7675 43.9136 66.1773 43.856 66.6006 43.856C67.8748 43.856 69.0276 44.3754 69.8587 45.2142C72.8016 40.7608 74.5153 35.4239 74.5153 29.6865C74.5153 14.111 61.8888 1.4845 46.3133 1.4845C38.3025 1.4845 31.0716 4.82465 25.9375 10.1882C23.5913 12.6393 21.683 15.5129 20.3384 18.6835C18.9045 22.0644 18.1113 25.7827 18.1113 29.6865C18.1113 35.8974 20.1192 41.6395 23.5211 46.2989C25.2482 48.6645 27.3347 50.751 29.7001 52.4783C34.3598 55.8803 40.102 57.8883 46.3133 57.8883C50.957 57.8883 55.3384 56.7656 59.2015 54.7773C56.5978 54.7773 53.9942 54.7773 51.3904 54.7773C49.6814 54.7773 48.2419 53.5159 47.926 51.8934C47.3936 51.9316 46.8557 51.951 46.3133 51.951C34.0169 51.951 24.0487 41.9828 24.0487 29.6863Z" fill="#FF8700"/>
<path fill-rule="evenodd" clip-rule="evenodd" d="M20.3392 18.6834C21.684 15.5128 23.5922 12.6391 25.9383 10.1881C25.1655 8.74444 23.643 7.76212 21.8911 7.76212C21.4676 7.76212 21.0578 7.81971 20.6686 7.92703C19.4267 5.85908 17.162 4.4754 14.5743 4.4754C10.6508 4.4754 7.47036 7.65599 7.47036 11.5793H6.70431C4.75065 11.5793 3.15234 13.1776 3.15234 15.1313C3.15234 17.0619 4.74338 18.6833 6.681 18.6833H20.3392V18.6834Z" fill="#0296E5"/>
<path fill-rule="evenodd" clip-rule="evenodd" d="M59.2843 40.5693C55.3608 40.5693 52.1803 43.7499 52.1803 47.6733H51.4143C49.4606 47.6733 47.8623 49.2716 47.8623 51.2252C47.8623 51.4529 47.8844 51.6764 47.9267 51.8933C48.2426 53.5156 49.6819 54.7772 51.3911 54.7772H59.2022H71.1765C73.0133 54.7772 74.5162 53.2743 74.5162 51.4375C74.5162 49.6005 73.0134 48.0978 71.1765 48.0978C71.0927 46.9759 70.6056 45.9664 69.8597 45.2139C69.0283 44.3753 67.8756 43.8559 66.6015 43.8559C66.178 43.8559 65.7682 43.9135 65.379 44.0208C65.0942 43.5464 64.7554 43.1081 64.3713 42.7142C63.0807 41.391 61.2786 40.5693 59.2843 40.5693Z" fill="#0296E5"/>
<path fill-rule="evenodd" clip-rule="evenodd" d="M23.8815 58.5507L17.4491 52.1183L2.93885 66.0238C1.00346 67.9592 1.00346 71.126 2.93885 73.0614C4.87425 74.9968 8.04104 74.9968 9.97643 73.0614L23.8815 58.5507Z" fill="#FF8700"/>
<path fill-rule="evenodd" clip-rule="evenodd" d="M17.4492 52.1183L23.8816 58.5507L29.7009 52.4781C27.3353 50.7508 25.249 48.6643 23.5218 46.2988L17.4492 52.1183Z" fill="#FFC144"/>
<path d="M38.8932 31.1707C39.713 31.1707 40.3776 30.5062 40.3776 29.6864C40.3776 28.8666 39.713 28.202 38.8932 28.202H38.8921C38.0723 28.202 37.4082 28.8666 37.4082 29.6864C37.4082 30.5062 38.0734 31.1707 38.8932 31.1707Z" fill="black"/>
<path d="M46.3141 31.1707C47.1339 31.1707 47.7984 30.5062 47.7984 29.6864C47.7984 28.8666 47.1339 28.202 46.3141 28.202H46.313C45.4932 28.202 44.8291 28.8666 44.8291 29.6864C44.8291 30.5062 45.4942 31.1707 46.3141 31.1707Z" fill="black"/>
<path d="M53.7359 31.1707C54.5558 31.1707 55.2203 30.5062 55.2203 29.6864C55.2203 28.8666 54.5558 28.202 53.7359 28.202H53.7349C52.9151 28.202 52.251 28.8666 52.251 29.6864C52.251 30.5062 52.9161 31.1707 53.7359 31.1707Z" fill="black"/>
<path d="M72.4413 46.7819C72.2706 46.1852 72.0103 45.6263 71.6764 45.1203C74.5081 40.4772 75.9999 35.1628 75.9999 29.6864C75.9999 13.3174 62.6827 0.00012207 46.3137 0.00012207C38.5088 0.00012207 31.3978 3.02768 26.0933 7.97015C24.9757 6.90174 23.4711 6.27803 21.8906 6.27803C21.7092 6.27803 21.5283 6.28605 21.3484 6.30208C19.7331 4.23814 17.2221 2.99131 14.5738 2.99131C10.3319 2.99131 6.79853 6.0821 6.10788 10.1303C3.61052 10.4259 1.6674 12.5561 1.6674 15.1315C1.6674 17.9085 3.91614 20.1678 6.68038 20.1678H18.1923C17.1777 23.1571 16.6274 26.3586 16.6274 29.6864C16.6274 35.7492 18.4543 41.3934 21.5865 46.0973L1.91172 64.9521C1.90415 64.9594 1.89658 64.9668 1.88916 64.9742C-0.62972 67.4933 -0.62972 71.5919 1.88916 74.1109C3.1486 75.3704 4.80302 76.0002 6.45744 76.0002C8.11185 76.0002 9.76627 75.3704 11.0257 74.1109C11.0331 74.1035 11.0406 74.0959 11.0478 74.0884L29.902 54.413C34.6063 57.5454 40.2505 59.3726 46.3137 59.3726C50.9708 59.3726 55.4244 58.3261 59.5564 56.2616H71.1759C73.8358 56.2616 75.9999 54.0975 75.9999 51.4376C75.9999 49.2152 74.4895 47.3391 72.4413 46.7819ZM6.68053 17.199C5.57234 17.199 4.63618 16.2522 4.63618 15.1314C4.63618 13.9913 5.56373 13.0637 6.70383 13.0637H7.46989C8.28967 13.0637 8.9542 12.3992 8.9542 11.5794C8.9542 8.48075 11.4752 5.95979 14.5738 5.95979C16.5658 5.95979 18.3683 6.98085 19.3956 8.69138C19.7388 9.26269 20.4205 9.53536 21.0628 9.35798C21.331 9.28407 21.6095 9.24651 21.8906 9.24651C22.6917 9.24651 23.4548 9.5603 24.0247 10.0985C22.1584 12.2197 20.5893 14.6085 19.3831 17.1992H6.68053V17.199ZM8.9165 72.022C7.5542 73.3734 5.34643 73.3699 3.98843 72.0118C2.63028 70.6538 2.62687 68.446 3.97819 67.0836L17.427 54.1953L21.8045 58.5728L8.9165 72.022ZM23.8586 56.4289L19.5706 52.1407L23.3681 48.5014C24.6064 50.0091 25.9903 51.3927 27.4977 52.6313L23.8586 56.4289ZM19.5961 29.6863C19.5961 14.9541 31.5817 2.9686 46.3138 2.9686C61.0459 2.9686 73.0315 14.9541 73.0315 29.6863C73.0315 34.422 71.7927 39.0222 69.4362 43.0806C68.5861 42.6279 67.6195 42.3717 66.601 42.3717C66.5314 42.3717 66.4619 42.3729 66.3926 42.3752C68.7976 38.581 70.0628 34.2206 70.0628 29.6864C70.0628 16.5912 59.409 5.93738 46.3138 5.93738C42.4653 5.93738 38.6409 6.88111 35.2542 8.66659C34.5291 9.04895 34.2511 9.94666 34.6333 10.6719C35.0155 11.397 35.9134 11.6749 36.6386 11.2928C39.6001 9.73114 42.9457 8.90586 46.3137 8.90586C57.772 8.90586 67.0941 18.228 67.0941 29.6863C67.0941 33.5525 66.0433 37.2738 64.0432 40.5322C62.6508 39.6061 60.9962 39.0851 59.2842 39.0851C55.0423 39.0851 51.5088 42.176 50.8183 46.2241C48.5709 46.49 46.7725 48.2417 46.4349 50.4667C46.3962 50.4667 46.3558 50.4667 46.3138 50.4667C34.8555 50.4667 25.5334 41.1446 25.5334 29.6863C25.5334 26.3179 26.3585 22.9726 27.9196 20.0118C28.3019 19.2866 28.0241 18.3889 27.2988 18.0065C26.5738 17.6241 25.6759 17.9021 25.2935 18.6272C23.5084 22.0133 22.5646 25.8374 22.5646 29.6863C22.5646 42.7815 33.2183 53.4353 46.3137 53.4353C46.5327 53.4353 46.7141 53.4347 46.8851 53.4317C47.535 54.7655 48.7546 55.7701 50.2235 56.1235C48.9409 56.3101 47.6365 56.4039 46.3138 56.4039C31.5815 56.4039 19.5961 44.4184 19.5961 29.6863ZM71.1761 53.293H51.3908C50.2826 53.293 49.3464 52.3461 49.3464 51.2253C49.3464 50.0852 50.274 49.1577 51.4141 49.1577H52.1801C52.9999 49.1577 53.6644 48.4931 53.6644 47.6733C53.6644 44.5747 56.1854 42.0537 59.284 42.0537C61.2761 42.0537 63.0785 43.0748 64.1058 44.7852C64.4489 45.3566 65.1306 45.6293 65.773 45.4518C66.0414 45.3777 66.3198 45.3403 66.6008 45.3403C68.2163 45.3403 69.5757 46.6 69.6958 48.2083C69.7535 48.9831 70.399 49.5822 71.1759 49.5822C72.1991 49.5822 73.0313 50.4144 73.0313 51.4376C73.0313 52.4607 72.1991 53.293 71.1761 53.293Z" fill="black"/>
<path d="M30.5698 15.4272C31.3896 15.4272 32.0542 14.7627 32.0542 13.9429C32.0542 13.1231 31.3896 12.4585 30.5698 12.4585H30.5687C29.7489 12.4585 29.085 13.1231 29.085 13.9429C29.085 14.7627 29.75 15.4272 30.5698 15.4272Z" fill="black"/>
</svg>
