<svg width="17" height="22" viewBox="0 0 17 22" fill="none" xmlns="http://www.w3.org/2000/svg">
<path fill-rule="evenodd" clip-rule="evenodd" d="M7.69675 17.6316L2.32416 20.881C1.8952 21.1271 1.36673 20.9529 1.13024 20.4874V20.4874C1.06183 20.3432 1.02492 20.1834 1.02246 20.0206V5.62242C1.02246 2.87643 2.72213 1.77803 5.16799 1.77803H10.9137C13.2849 1.77803 15.0592 2.8032 15.0592 5.43936V20.0206C15.0592 20.2803 14.9657 20.5295 14.7994 20.7131C14.633 20.8968 14.4073 21 14.1721 21C14.022 20.9974 13.8745 20.9567 13.7409 20.881L8.33517 17.6316C8.13597 17.5128 7.89595 17.5128 7.69675 17.6316Z" stroke="#67686D" stroke-width="2" stroke-linecap="round" stroke-linejoin="round"/>
</svg>
